<?xml version="1.0" encoding="UTF-8"?>
<svg id="Layer_1" xmlns="http://www.w3.org/2000/svg" version="1.1" xmlns:krita="http://krita.org/namespaces/svg/krita" xmlns:sodipodi="http://sodipodi.sourceforge.net/DTD/sodipodi-0.dtd" viewBox="0 0 579.86 650.29">
  <!-- Generator: Adobe Illustrator 29.8.3, SVG Export Plug-In . SVG Version: 2.1.1 Build 3)  -->
  <defs>
    <style>
      .st0 {
        fill: #5f0000;
        stroke: #5f0000;
      }

      .st0, .st1 {
        fill-rule: evenodd;
        stroke-linecap: square;
        stroke-linejoin: bevel;
        stroke-width: 2.13px;
      }

      .st1 {
        stroke: #000;
      }
    </style>
  </defs>
  <path id="shape1" class="st1" d="M275.72,561.88l-35.16-.18-22.2,87.55-30.54-93.06-109.39-44.93L.99,309.17l36.94,9.23,59.85-73.88L51.43.88l197.48,135.14,71.03.18h11.01L528.43,1.06l-46.35,244.18,59.85,73.88,36.94-9.23-77.43,202.09-109.39,44.93-30.54,93.06-22.2-87.55-63.58.36v-.89" sodipodi:nodetypes="cccccccccccccccccccccc"/>
  <path id="shape2" class="st0" d="M327.4,392.46l207.42-46.17-114.19,117.92-74.05-21.67-19.18-50.08Z" sodipodi:nodetypes="ccccc"/>
  <path id="shape0" class="st0" d="M253.52,392.46l-207.42-46.17,114.19,117.92,74.05-21.67,19.18-50.08Z" sodipodi:nodetypes="ccccc"/>
</svg>