<?xml version="1.0" encoding="utf-8"?>
<!-- Generator: Adobe Illustrator 26.3.1, SVG Export Plug-In . SVG Version: 6.00 Build 0)  -->
<svg version="1.1"
	 id="Layer_1" xmlns:sodipodi="http://sodipodi.sourceforge.net/DTD/sodipodi-0.dtd" xmlns:krita="http://krita.org/namespaces/svg/krita"
	 xmlns="http://www.w3.org/2000/svg" xmlns:xlink="http://www.w3.org/1999/xlink" x="0px" y="0px" viewBox="0 0 595.2 841.9"
	 style="enable-background:new 0 0 595.2 841.9;" xml:space="preserve">
<style type="text/css">
	.st0{fill-rule:evenodd;clip-rule:evenodd;stroke:#000000;stroke-width:1.2;stroke-linecap:square;stroke-linejoin:bevel;}
	
		.st1{fill-rule:evenodd;clip-rule:evenodd;fill:#5F0000;stroke:#5F0000;stroke-width:1.2;stroke-linecap:square;stroke-linejoin:bevel;}
</style>
<g>
	<path id="shape1" sodipodi:nodetypes="cccccccccccccccccccccc" class="st0" d="M289.3,567.5l-19.8-0.1l-12.5,49.3l-17.2-52.4
		l-61.6-25.3l-43.6-113.8l20.8,5.2l33.7-41.6L163,251.6l111.2,76.1l40,0.1l6.2,0l111.2-76.1l-26.1,137.5l33.7,41.6l20.8-5.2
		l-43.6,113.8l-61.6,25.3l-17.2,52.4l-12.5-49.3l-35.8,0.2L289.3,567.5"/>
	<path id="shape2" sodipodi:nodetypes="ccccc" class="st1" d="M318.4,472.1l116.8-26l-64.3,66.4l-41.7-12.2L318.4,472.1z"/>
	<path id="shape0" sodipodi:nodetypes="ccccc" class="st1" d="M276.8,472.1l-116.8-26l64.3,66.4l41.7-12.2L276.8,472.1z"/>
</g>
</svg>
